<svg width="25" height="25" viewBox="0 0 25 25" fill="none" xmlns="http://www.w3.org/2000/svg">
<path d="M17.2843 6.49023V5.49023C17.2843 4.69458 16.9682 3.93152 16.4056 3.36891C15.843 2.8063 15.0799 2.49023 14.2843 2.49023H10.2843C9.48862 2.49023 8.72556 2.8063 8.16295 3.36891C7.60034 3.93152 7.28427 4.69458 7.28427 5.49023V6.49023H2.28427V10.4902C2.28427 11.2859 2.60034 12.0489 3.16295 12.6116C3.72556 13.1742 4.48862 13.4902 5.28427 13.4902H19.2843C20.0799 13.4902 20.843 13.1742 21.4056 12.6116C21.9682 12.0489 22.2843 11.2859 22.2843 10.4902V6.49023H17.2843ZM9.28427 5.49023C9.28427 5.22502 9.38963 4.97066 9.57716 4.78313C9.7647 4.59559 10.0191 4.49023 10.2843 4.49023H14.2843C14.5495 4.49023 14.8038 4.59559 14.9914 4.78313C15.1789 4.97066 15.2843 5.22502 15.2843 5.49023V6.49023H9.28427V5.49023ZM19.2843 14.4902C19.8537 14.487 20.416 14.3622 20.9333 14.1243C21.4507 13.8863 21.9113 13.5406 22.2843 13.1102V17.4902C22.2843 18.2859 21.9682 19.0489 21.4056 19.6116C20.843 20.1742 20.0799 20.4902 19.2843 20.4902H5.28427C4.48862 20.4902 3.72556 20.1742 3.16295 19.6116C2.60034 19.0489 2.28427 18.2859 2.28427 17.4902V13.1102C2.65727 13.5406 3.11785 13.8863 3.63522 14.1243C4.15258 14.3622 4.7148 14.487 5.28427 14.4902H19.2843Z" fill="black" fill-opacity="0.6"/>
</svg>
