<svg width="35" height="35" viewBox="0 0 35 35" fill="none" xmlns="http://www.w3.org/2000/svg">
<path d="M31.6042 0.416504H2.5625C1.88288 0.416504 1.2311 0.686481 0.750539 1.16704C0.269977 1.6476 0 2.29939 0 2.979V32.0207C0 32.7003 0.269977 33.3521 0.750539 33.8326C1.2311 34.3132 1.88288 34.5832 2.5625 34.5832H31.6042C32.2838 34.5832 32.9356 34.3132 33.4161 33.8326C33.8967 33.3521 34.1667 32.7003 34.1667 32.0207V2.979C34.1667 2.29939 33.8967 1.6476 33.4161 1.16704C32.9356 0.686481 32.2838 0.416504 31.6042 0.416504ZM10.25 29.4582H5.125V14.0832H10.25V29.4582ZM7.6875 11.0936C7.10015 11.0768 6.53076 10.8873 6.05049 10.5488C5.57022 10.2102 5.20036 9.73766 4.98713 9.19012C4.7739 8.64258 4.72674 8.04435 4.85156 7.47016C4.97638 6.89598 5.26764 6.37131 5.68894 5.96171C6.11025 5.55211 6.64291 5.27574 7.22038 5.16714C7.79785 5.05855 8.39452 5.12253 8.93584 5.3511C9.47716 5.57967 9.93911 5.96269 10.264 6.4523C10.5889 6.94191 10.7623 7.51641 10.7625 8.104C10.749 8.90752 10.418 9.67302 9.84179 10.2332C9.2656 10.7934 8.49108 11.1027 7.6875 11.0936ZM29.0417 29.4582H23.9167V21.3607C23.9167 18.9348 22.8917 18.0636 21.5592 18.0636C21.1685 18.0896 20.7868 18.1925 20.436 18.3665C20.0852 18.5404 19.7723 18.782 19.5151 19.0772C19.258 19.3725 19.0617 19.7157 18.9375 20.087C18.8134 20.4583 18.7638 20.8505 18.7917 21.2411C18.7832 21.3206 18.7832 21.4008 18.7917 21.4803V29.4582H13.6667V14.0832H18.6208V16.304C19.1206 15.5438 19.8071 14.9246 20.6148 14.5059C21.4224 14.0871 22.3241 13.8827 23.2333 13.9123C25.8813 13.9123 28.9733 15.3815 28.9733 20.1648L29.0417 29.4582Z" fill="#0A66C2"/>
</svg>
