<svg width="25" height="25" viewBox="0 0 25 25" fill="none" xmlns="http://www.w3.org/2000/svg">
<path d="M16.4383 4.49023H8.43832C6.58181 4.49023 4.80133 5.22773 3.48858 6.54049C2.17582 7.85324 1.43832 9.63372 1.43832 11.4902C1.43832 13.3468 2.17582 15.1272 3.48858 16.44C4.80133 17.7527 6.58181 18.4902 8.43832 18.4902H12.4383V22.4902L20.5983 17.1002C21.4895 16.464 22.2134 15.6213 22.708 14.6444C23.2026 13.6674 23.4532 12.5852 23.4383 11.4902C23.4383 9.63372 22.7008 7.85324 21.3881 6.54049C20.0753 5.22773 18.2948 4.49023 16.4383 4.49023ZM8.43832 12.7402C8.1911 12.7402 7.94942 12.6669 7.74386 12.5296C7.5383 12.3922 7.37808 12.197 7.28347 11.9686C7.18886 11.7402 7.16411 11.4888 7.21234 11.2464C7.26057 11.0039 7.37962 10.7812 7.55444 10.6064C7.72926 10.4315 7.95198 10.3125 8.19446 10.2643C8.43694 10.216 8.68827 10.2408 8.91668 10.3354C9.14509 10.43 9.34031 10.5902 9.47766 10.7958C9.61501 11.0013 9.68832 11.243 9.68832 11.4902C9.68832 11.8218 9.55663 12.1397 9.32221 12.3741C9.08779 12.6085 8.76984 12.7402 8.43832 12.7402ZM12.4383 12.7402C12.1911 12.7402 11.9494 12.6669 11.7439 12.5296C11.5383 12.3922 11.3781 12.197 11.2835 11.9686C11.1889 11.7402 11.1641 11.4888 11.2123 11.2464C11.2606 11.0039 11.3796 10.7812 11.5544 10.6064C11.7293 10.4315 11.952 10.3125 12.1945 10.2643C12.4369 10.216 12.6883 10.2408 12.9167 10.3354C13.1451 10.43 13.3403 10.5902 13.4777 10.7958C13.615 11.0013 13.6883 11.243 13.6883 11.4902C13.6883 11.8218 13.5566 12.1397 13.3222 12.3741C13.0878 12.6085 12.7698 12.7402 12.4383 12.7402ZM16.4383 12.7402C16.1911 12.7402 15.9494 12.6669 15.7439 12.5296C15.5383 12.3922 15.3781 12.197 15.2835 11.9686C15.1889 11.7402 15.1641 11.4888 15.2123 11.2464C15.2606 11.0039 15.3796 10.7812 15.5544 10.6064C15.7293 10.4315 15.952 10.3125 16.1945 10.2643C16.4369 10.216 16.6883 10.2408 16.9167 10.3354C17.1451 10.43 17.3403 10.5902 17.4777 10.7958C17.615 11.0013 17.6883 11.243 17.6883 11.4902C17.6883 11.8218 17.5566 12.1397 17.3222 12.3741C17.0878 12.6085 16.7698 12.7402 16.4383 12.7402Z" fill="black" fill-opacity="0.6"/>
</svg>
