<svg width="25" height="25" viewBox="0 0 25 25" fill="none" xmlns="http://www.w3.org/2000/svg">
<path d="M12.1202 16.4902V22.4902H3.12024V16.4902C3.12024 15.6946 3.43631 14.9315 3.99892 14.3689C4.56153 13.8063 5.32459 13.4902 6.12024 13.4902H9.12024C9.91589 13.4902 10.679 13.8063 11.2416 14.3689C11.8042 14.9315 12.1202 15.6946 12.1202 16.4902ZM17.6202 13.4902C18.3125 13.4902 18.9892 13.285 19.5647 12.9004C20.1403 12.5158 20.5889 11.9692 20.8538 11.3296C21.1187 10.6901 21.188 9.98636 21.053 9.30743C20.9179 8.6285 20.5846 8.00486 20.0951 7.51537C19.6056 7.02589 18.982 6.69255 18.3031 6.5575C17.6241 6.42245 16.9204 6.49176 16.2808 6.75667C15.6413 7.02157 15.0947 7.47018 14.7101 8.04575C14.3255 8.62132 14.1202 9.29801 14.1202 9.99025C14.1202 10.9185 14.489 11.8087 15.1454 12.4651C15.8017 13.1215 16.692 13.4902 17.6202 13.4902ZM18.6202 15.4902H16.6202C15.9572 15.4902 15.3213 15.7536 14.8525 16.2225C14.3836 16.6913 14.1202 17.3272 14.1202 17.9902V22.4902H21.1202V17.9902C21.1202 17.3272 20.8568 16.6913 20.388 16.2225C19.9192 15.7536 19.2833 15.4902 18.6202 15.4902ZM7.62024 2.49025C6.73023 2.49025 5.8602 2.75417 5.12017 3.24863C4.38015 3.7431 3.80338 4.4459 3.46278 5.26817C3.12219 6.09044 3.03307 6.99524 3.20671 7.86815C3.38034 8.74107 3.80892 9.54289 4.43826 10.1722C5.0676 10.8016 5.86942 11.2301 6.74233 11.4038C7.61525 11.5774 8.52005 11.4883 9.34232 11.1477C10.1646 10.8071 10.8674 10.2303 11.3619 9.49031C11.8563 8.75029 12.1202 7.88026 12.1202 6.99025C12.1216 6.39893 12.0061 5.81317 11.7804 5.26661C11.5547 4.72005 11.2233 4.22345 10.8052 3.80533C10.387 3.3872 9.89044 3.05578 9.34387 2.8301C8.79731 2.60442 8.21156 2.48893 7.62024 2.49025Z" fill="black" fill-opacity="0.6"/>
</svg>
