<svg width="21" height="21" viewBox="0 0 21 21" fill="none" xmlns="http://www.w3.org/2000/svg">
<path d="M20.6073 17.4902H12.3273C12.5075 17.7939 12.6041 18.1398 12.6073 18.4929C12.6104 18.846 12.5201 19.1936 12.3453 19.5005C12.1706 19.8073 11.9178 20.0624 11.6125 20.2399C11.3072 20.4173 10.9604 20.5108 10.6073 20.5108C10.2543 20.5108 9.90745 20.4173 9.60219 20.2399C9.29692 20.0624 9.04408 19.8073 8.86936 19.5005C8.69464 19.1936 8.60427 18.846 8.60743 18.4929C8.61059 18.1398 8.70716 17.7939 8.88735 17.4902H0.607347V16.4902C0.656176 15.4395 1.06994 14.4387 1.77735 13.6602L2.77735 12.4902H18.4773L19.4773 13.6602C20.1776 14.4398 20.578 15.4428 20.6073 16.4902V17.4902ZM16.8173 5.93023C16.6164 4.42529 15.8761 3.04439 14.734 2.04393C13.592 1.04347 12.1257 0.491402 10.6073 0.490234C9.08904 0.491402 7.62273 1.04347 6.48066 2.04393C5.33858 3.04439 4.59834 4.42529 4.39735 5.93023L3.60735 11.4902H17.6073L16.8173 5.93023Z" fill="black" fill-opacity="0.6"/>
</svg>
