<svg width="25" height="25" viewBox="0 0 25 25" fill="none" xmlns="http://www.w3.org/2000/svg">
<path d="M20.9255 20.4902C21.242 20.1779 21.4934 19.8058 21.6651 19.3955C21.8368 18.9852 21.9253 18.545 21.9255 18.1002V6.87023C21.9255 5.9738 21.5694 5.11409 20.9355 4.48021C20.3016 3.84634 19.4419 3.49023 18.5455 3.49023H7.30548C6.86243 3.49177 6.42406 3.58092 6.0156 3.75254C5.60715 3.92416 5.23666 4.17487 4.92548 4.49023L20.9255 20.4902Z" fill="#F8C77E"/>
<path d="M4.92548 4.49023C4.61011 4.80142 4.3594 5.1719 4.18778 5.58036C4.01616 5.98882 3.92702 6.42719 3.92548 6.87023V18.1102C3.92548 19.0067 4.28158 19.8664 4.91546 20.5003C5.54933 21.1341 6.40904 21.4902 7.30548 21.4902H18.5455C18.9885 21.4887 19.4269 21.3995 19.8353 21.2279C20.2438 21.0563 20.6143 20.8056 20.9255 20.4902L4.92548 4.49023Z" fill="#E7A33E"/>
</svg>
