<svg width="15" height="15" viewBox="0 0 15 15" fill="none" xmlns="http://www.w3.org/2000/svg">
<path d="M13.7176 11.8474L10.4576 8.58738C11.1068 7.42632 11.3141 6.06958 11.0411 4.76762C10.7682 3.46567 10.0334 2.30642 8.97255 1.50388C7.91165 0.701338 6.59622 0.309697 5.26912 0.401258C3.94202 0.492819 2.69285 1.0614 1.75222 2.00203C0.811582 2.94267 0.243002 4.19184 0.151441 5.51894C0.0598802 6.84604 0.451521 8.16146 1.25406 9.22236C2.0566 10.2833 3.21586 11.018 4.51781 11.291C5.81976 11.5639 7.1765 11.3566 8.33757 10.7074L11.5976 13.9674C11.7349 14.1148 11.9005 14.233 12.0845 14.3149C12.2685 14.3969 12.4671 14.441 12.6685 14.4446C12.8699 14.4481 13.07 14.4111 13.2568 14.3356C13.4435 14.2602 13.6132 14.1479 13.7556 14.0055C13.8981 13.863 14.0104 13.6934 14.0858 13.5066C14.1613 13.3198 14.1983 13.1197 14.1947 12.9183C14.1912 12.7169 14.1471 12.5183 14.0651 12.3343C13.9831 12.1503 13.8649 11.9847 13.7176 11.8474ZM2.15757 5.90738C2.15757 5.21515 2.36284 4.53846 2.74742 3.96289C3.13201 3.38732 3.67863 2.93871 4.31817 2.67381C4.95772 2.4089 5.66145 2.33959 6.34038 2.47464C7.01932 2.60968 7.64296 2.94303 8.13244 3.43251C8.62192 3.92199 8.95527 4.54563 9.09032 5.22457C9.22536 5.9035 9.15605 6.60723 8.89115 7.24678C8.62624 7.88632 8.17764 8.43294 7.60206 8.81753C7.02649 9.20211 6.3498 9.40738 5.65757 9.40738C4.72931 9.40738 3.83907 9.03864 3.18269 8.38226C2.52632 7.72588 2.15757 6.83564 2.15757 5.90738Z" fill="black" fill-opacity="0.75"/>
</svg>
